Coordinates
version=1
nRows=24
nColumns=38
inDegrees=no

Units are S.I. units (second, meters, Newtons, ...)
If the header above contains a line with 'inDegrees', this indicates whether rotational values are in degrees (yes) or radians (no).

endheader
time	pelvis_tilt	pelvis_list	pelvis_rotation	pelvis_tx	pelvis_ty	pelvis_tz	hip_flexion_r	hip_adduction_r	hip_rotation_r	knee_angle_r	ankle_angle_r	subtalar_angle_r	mtp_angle_r	hip_flexion_l	hip_adduction_l	hip_rotation_l	knee_angle_l	ankle_angle_l	subtalar_angle_l	mtp_angle_l	lumbar_extension	lumbar_bending	lumbar_rotation	arm_flex_r	arm_add_r	arm_rot_r	elbow_flex_r	pro_sup_r	wrist_flex_r	wrist_dev_r	arm_flex_l	arm_add_l	arm_rot_l	elbow_flex_l	pro_sup_l	wrist_flex_l	wrist_dev_l
1.54	0.855094	1.50693	-2.21126	0.674101	1.20136	0.972787	-0.087175	-0.00448019	-0.120083	0	-0.046617	0	0	0.357047	-0.00996527	-0.0612856	0.68767	0.0663463	0	0	-0.151017	0.0254758	0.256772	0.428821	-0.260156	0.0289608	0.703641	1.5708	0	0	-0.0651909	-0.180003	0.389355	0.622754	0.976732	0	0
1.55	0.864813	1.50572	-2.22146	0.674816	1.19567	0.972681	-0.0943032	-0.00481394	-0.119681	0	-0.0415495	0	0	0.353965	-0.00561249	-0.0689614	0.641655	0.0598812	0	0	-0.15358	0.0255145	0.259514	0.449946	-0.255583	0.0458327	0.709034	1.5708	0	0	-0.0650211	-0.180985	0.386931	0.63511	0.985022	0	0
1.56	0.868305	1.50409	-2.22502	0.675621	1.18989	0.972573	-0.102261	-0.00522625	-0.119589	0	-0.0361277	0	0	0.349427	-0.000933938	-0.0770022	0.595371	0.053349	0	0	-0.156549	0.0255986	0.261836	0.470353	-0.25076	0.0634004	0.714189	1.5708	0	0	-0.0650945	-0.182305	0.386368	0.647519	0.995238	0	0
1.57	0.862335	1.50301	-2.22566	0.676994	1.184	0.972321	-0.11235	-0.00786801	-0.121893	0	-0.0288321	0	0	0.343426	0.0132997	-0.077692	0.551471	0.0406776	0	0	-0.159096	0.0279619	0.267571	0.490516	-0.245684	0.0807215	0.71987	1.5708	0	0	-0.0670572	-0.182469	0.387261	0.65903	1.00644	0	0
1.58	0.862348	1.50068	-2.22532	0.67795	1.17802	0.972191	-0.120527	-0.00882515	-0.122205	0	-0.0222213	0	0	0.336615	0.0168511	-0.0874672	0.505185	0.0362556	0	0	-0.162243	0.0274945	0.270066	0.508682	-0.24016	0.0977056	0.72506	1.5708	0	0	-0.0670558	-0.184568	0.387901	0.670313	1.01408	0	0
1.59	0.862067	1.49837	-2.22425	0.679083	1.17198	0.972004	-0.128928	-0.00992342	-0.122894	0	-0.0152486	0	0	0.329138	0.0208582	-0.0976404	0.459357	0.0320044	0	0	-0.165055	0.027153	0.272291	0.52594	-0.234366	0.114388	0.729955	1.5708	0	0	-0.067062	-0.18667	0.389477	0.68067	1.02275	0	0
1.6	0.862213	1.49605	-2.22334	0.680351	1.16584	0.97177	-0.137416	-0.0112327	-0.123965	5.39436e-08	-0.0078061	0	0	0.321008	0.0253276	-0.108305	0.41411	0.0272448	0	0	-0.167498	0.0267445	0.274574	0.542023	-0.228321	0.130563	0.734647	1.5708	0	0	-0.0671817	-0.188902	0.390847	0.690378	1.02743	0	0
1.61	0.8654	1.49394	-2.22561	0.681709	1.15958	0.97145	-0.145012	-0.0128385	-0.126248	0.00381842	0.000798776	0	0	0.312616	0.0301384	-0.119267	0.369718	0.0216448	0	0	-0.169117	0.0262248	0.277559	0.556676	-0.22244	0.146052	0.739053	1.5708	0	0	-0.0670518	-0.191023	0.393457	0.698605	1.0313	0	0
1.62	0.873385	1.49323	-2.23202	0.683216	1.15328	0.970929	-0.151101	-0.013853	-0.12927	0.00789797	0.00918928	0	0	0.306076	0.0348818	-0.128898	0.327984	0.0157747	0	0	-0.16868	0.0264884	0.280968	0.569325	-0.216466	0.158492	0.743403	1.5708	0	0	-0.0663508	-0.192296	0.396465	0.704061	1.03488	0	0
1.63	0.878527	1.49211	-2.23541	0.684773	1.14696	0.970383	-0.157397	-0.0149977	-0.132979	0.0126564	0.0180977	0	0	0.298607	0.0399372	-0.139323	0.287008	0.00843131	0	0	-0.1686	0.0264554	0.284415	0.581488	-0.21058	0.171363	0.746794	1.5708	0	0	-0.0656624	-0.194323	0.400571	0.709883	1.03895	0	0
1.64	0.885194	1.49176	-2.23935	0.686421	1.14063	0.969701	-0.162951	-0.015539	-0.13759	0.0176484	0.0271699	0	0	0.292157	0.0450369	-0.149016	0.248165	-0.000140826	0	0	-0.16759	0.0266926	0.287072	0.59293	-0.204083	0.18394	0.749407	1.5708	0	0	-0.0651514	-0.196885	0.405066	0.715442	1.04333	0	0
1.65	0.888213	1.49128	-2.24001	0.688236	1.13408	0.969002	-0.169289	-0.0161976	-0.142251	0.0224879	0.0365227	0	0	0.284623	0.050568	-0.156892	0.210228	-0.0104081	0	0	-0.16602	0.0272357	0.290392	0.602911	-0.197504	0.195977	0.751456	1.5708	0	0	-0.0649224	-0.198932	0.409791	0.719169	1.0482	0	0
1.66	0.886102	1.49097	-2.23562	0.690197	1.12738	0.968295	-0.176204	-0.0165508	-0.146816	0.0269888	0.0456827	0	0	0.27635	0.0561323	-0.161487	0.17368	-0.0216768	0	0	-0.164056	0.0283293	0.294057	0.611624	-0.190964	0.206661	0.752943	1.5708	0	0	-0.0648161	-0.200416	0.414496	0.720927	1.05411	0	0
1.67	0.886121	1.49104	-2.23335	0.692253	1.1206	0.967533	-0.182716	-0.0169201	-0.151098	0.0316393	0.0546222	0	0	0.268125	0.0615983	-0.162849	0.139072	-0.0326419	0	0	-0.16139	0.0294771	0.297869	0.619241	-0.184321	0.216671	0.75395	1.5708	0	0	-0.0651078	-0.201836	0.417648	0.721749	1.05999	0	0
1.68	0.889586	1.49195	-2.23466	0.694406	1.11375	0.966661	-0.188327	-0.0171344	-0.154999	0.0362994	0.0634054	0	0	0.260627	0.0667154	-0.162071	0.106927	-0.0414291	0	0	-0.157486	0.0308684	0.30223	0.625305	-0.177851	0.226244	0.754887	1.5708	0	0	-0.0657001	-0.202915	0.421053	0.721841	1.06587	0	0
1.69	0.889067	1.49351	-2.23136	0.696659	1.10686	0.965712	-0.193612	-0.0165888	-0.159394	0.0412034	0.0722913	0	0	0.253976	0.0711622	-0.159234	0.0784869	-0.0471842	0	0	-0.15324	0.0328792	0.306462	0.630129	-0.1716	0.235243	0.756324	1.5708	0	0	-0.0663285	-0.203786	0.423447	0.721435	1.06924	0	0
1.7	0.882003	1.49561	-2.22142	0.698886	1.09993	0.96471	-0.198614	-0.0151592	-0.163811	0.0465305	0.0810338	0	0	0.248605	0.0742158	-0.154861	0.0553915	-0.048968	0	0	-0.14895	0.0355173	0.310786	0.634185	-0.165363	0.242721	0.757719	1.5708	0	0	-0.0670525	-0.204135	0.423245	0.720178	1.06733	0	0
1.71	0.87303	1.49752	-2.20972	0.701144	1.09294	0.963701	-0.20366	-0.0138862	-0.16807	0.0524047	0.0898995	0	0	0.24389	0.0766608	-0.148859	0.0372665	-0.0486159	0	0	-0.144896	0.0379056	0.315247	0.637692	-0.158895	0.248726	0.758438	1.5708	0	0	-0.0678478	-0.20496	0.424822	0.718682	1.06409	0	0
1.72	0.861109	1.49909	-2.19535	0.703431	1.08591	0.962685	-0.209042	-0.0128381	-0.171853	0.0585468	0.0986728	0	0	0.240147	0.0785028	-0.143199	0.0249489	-0.0468154	0	0	-0.141241	0.0399936	0.319902	0.640657	-0.151994	0.253316	0.758477	1.5708	0	0	-0.0688534	-0.206915	0.428854	0.717815	1.06128	0	0
1.73	0.849588	1.50045	-2.18157	0.705721	1.07882	0.961665	-0.214519	-0.0120134	-0.175647	0.0648414	0.10729	0	0	0.238069	0.07983	-0.139411	0.0191897	-0.0438761	0	0	-0.138	0.0415417	0.324274	0.643166	-0.144469	0.256695	0.758276	1.5708	0	0	-0.0701788	-0.208956	0.432417	0.716793	1.05762	0	0
1.74	0.837882	1.50167	-2.16801	0.707998	1.07165	0.960679	-0.219869	-0.0115087	-0.179644	0.0717124	0.115911	0	0	0.237633	0.0805304	-0.138363	0.020007	-0.0409451	0	0	-0.134926	0.0426121	0.329169	0.644719	-0.136729	0.258286	0.757869	1.5708	0	0	-0.0713321	-0.210695	0.435257	0.714714	1.05323	0	0
1.75	0.8227	1.50274	-2.15153	0.710295	1.06441	0.959738	-0.225062	-0.0112933	-0.183692	0.0795619	0.124652	0	0	0.238343	0.0804586	-0.139044	0.0268495	-0.0391118	0	0	-0.132147	0.0435164	0.334592	0.645317	-0.128878	0.258297	0.75743	1.5708	0	0	-0.0725505	-0.212476	0.438103	0.712162	1.04824	0	0
1.76	0.801057	1.50385	-2.12943	0.712602	1.05708	0.95881	-0.229937	-0.0112247	-0.187799	0.0885684	0.133582	0	0	0.239964	0.0793523	-0.141369	0.0392346	-0.0373092	0	0	-0.129524	0.044683	0.340732	0.644894	-0.121246	0.257624	0.757093	1.5708	0	0	-0.0740329	-0.214519	0.441576	0.70923	1.04314	0	0
1.77	0.774175	1.50527	-2.10316	0.714918	1.04961	0.957857	-0.23432	-0.0112303	-0.191316	0.0983688	0.142409	0	0	0.242342	0.0771214	-0.144824	0.0562774	-0.035527	0	0	-0.126551	0.0461506	0.347918	0.64305	-0.113841	0.256014	0.757177	1.5708	0	0	-0.0759685	-0.216729	0.445068	0.706008	1.03781	0	0
